<svg xmlns="http://www.w3.org/2000/svg" width="22" height="26" viewBox="0 0 22 26"><path fill="#298843" d="M10.915 14.384a7.018 7.018 0 007.016-7.017A7.018 7.018 0 0010.915.351a7.018 7.018 0 00-7.017 7.016 7.018 7.018 0 007.017 7.017zm0-2.34a4.685 4.685 0 01-4.678-4.677c0-2.577 2.1-4.678 4.678-4.678 2.577 0 4.677 2.1 4.677 4.678s-2.1 4.678-4.677 4.678zm8.576 13.254a2.34 2.34 0 002.338-2.338v-1.248a6.55 6.55 0 00-6.548-6.549c-1.399 0-2.071.78-4.366.78-2.295 0-2.963-.78-4.366-.78A6.55 6.55 0 000 21.713v1.247a2.34 2.34 0 002.339 2.338H19.49zm0-2.338H2.339v-1.248c0-2.32 1.89-4.21 4.21-4.21.711 0 1.866.78 4.366.78 2.519 0 3.65-.78 4.366-.78 2.319 0 4.21 1.89 4.21 4.21v1.248z"/></svg>