<svg class="cp-footer-logo" xmlns="http://www.w3.org/2000/svg" width="31" height="32" viewBox="0 0 31 32"><g fill="none" fill-rule="evenodd" transform="translate(0 .309)"><circle class="cp-footer-logo-background" cx="16" cy="16" r="10" fill="#FFF"/><path class="cp-footer-logo-flower" fill="#F04E38" d="M16.076 31h-1.128a2.622 2.622 0 01-1.601-1.064l-1.421-2.018a2.65 2.65 0 00-2.637-1.082l-2.428.438a2.649 2.649 0 01-3.08-3.06l.423-2.43a2.648 2.648 0 00-1.099-2.63l-2.027-1.407A2.62 2.62 0 010 16.136v-1.129a2.622 2.622 0 011.064-1.601l2.018-1.42A2.648 2.648 0 004.164 9.35L3.726 6.92a2.648 2.648 0 013.058-3.08l2.433.423a2.646 2.646 0 002.628-1.099l1.408-2.028A2.63 2.63 0 0115.391 0h.076a2.629 2.629 0 012.127 1.123l1.42 2.02a2.65 2.65 0 002.636 1.08l2.429-.437a2.648 2.648 0 013.08 3.059l-.424 2.432a2.65 2.65 0 001.1 2.629l2.028 1.407a2.647 2.647 0 01.013 4.34l-2.018 1.421a2.65 2.65 0 00-1.082 2.636l.438 2.43a2.647 2.647 0 01-3.059 3.078l-2.432-.422a2.65 2.65 0 00-2.629 1.099l-1.408 2.027A2.62 2.62 0 0116.076 31zm2.528-14.232l5.395-1.376-5.437-1.202 2.05-3.975-3.903 2.181-1.377-5.395-1.202 5.437-4.075-2.167 2.281 4.02-5.396 1.377 5.438 1.202-2.075 3.963 3.928-2.169 1.377 5.395 1.202-5.437 3.99 2.12-2.196-3.974z"/></g></svg>